<svg id="statues" xmlns="http://www.w3.org/2000/svg" viewBox="0 0 399.48 629.79">
    <defs>
        <style>
            .cls-2,.cls-3{stroke:#000;stroke-width:3px}.cls-2{stroke-miterlimit:10}.cls-3{fill:none;stroke-linecap:round;stroke-linejoin:round}
        </style>
    </defs>
    <title>
        Moai
    </title>
    <path d="M559.18,111.4c9.5-5.83,1.2-35.55,8.81-43.69,2.51-2.7,11.42-1.5,14.22-3.9C588.62,58.31,590.07,39,596,33c7.62-7.68,28.54-17.55,39.35-18,33-1.31,102.35,20.2,124,45.1,11.12,12.82,15.2,49.48,14,66.4-.93,13.14-17.6,36.34-18,49.5-.21,7,7.31,20,8,27,1.95,19.74-4.26,59.41-7.24,79-7.52,49.49-10.39,156.82-41.76,195.83-3.34,4.15-17.56,3.81-19.41,8.81-4.38,11.85,19.16,33.35,21.33,45.79,3.78,21.65,7.18,71.58-7.92,87.54-24.83,26.25-106.91,19.3-143,21-34,1.61-102.94,1.11-136-7-12.82-3.15-42.5-10-48-22-16.16-35.24,16.79-120.43,43-149,14.15-15.43,72.25-21.29,78.18-30.08.26-3.49-12.83-3.48-12.18-6.92,4.7-24.72,39-112.79,33-118-4.88-2.55-8.5,17.08-14,17-5.7-.08-13.13-12.37-14-18-4.07-26.34,32.5-73.73,37-100,3.61-21.09-8.57-65.45-1.32-85.58,1.61-4.46,7.79-13,12.32-14.42C547.28,105.8,555.68,113.55,559.18,111.4Z" transform="translate(-375.57 -13.44)" style="stroke-miterlimit:10;stroke:#000;stroke-width:3px;fill:#fff"/>
    <path class="cls-2" d="M756.48,277c5.7,51-10.05,160.82-42.13,200.86-3.33,4.15-17.56,3.81-19.41,8.81-4.38,11.85,19.16,33.35,21.33,45.79,3.78,21.65,7.18,71.58-7.92,87.54-12.15,12.84-55.07,19.8-70,10.27-14.17-9.06-10.83-49.85-19-64.53-13.22-23.65-53.43-61.31-72.48-80.58-8.15-8.25-27.19-22.13-34.13-31.42-3.47-4.65-14.4-16.81-10.21-20.82,15.6-14.93,55.31,34.63,75.82,41.41,14.92,4.92,50.62,19.23,62.26,8.66,9.84-8.93-3.82-39.93-2.22-53.13,2.34-19.31,28.13-56.36,21.72-74.74-2.5-7.16-17.82-14.48-24.76-17.55-10.09-4.48-34.81-2.28-43.09-9.57-1.73-1.52-4.42-6.74-3.12-8.64,4.26-6.23,22.67-1.29,30.21-.73,9.63.73,28.89,3.64,38.06,6.69s24.73,15.52,34.13,17.34c3.07.6,9.46-.19,12.46-1.08,3.19-.95,9.49-3.82,11.71-6.29s5.54-9.17,5.09-12.52c-.67-4.93-8.24-12.71-12.17-15.79-7.46-5.84-26.92-9.85-34.71-15.25-2.48-1.72-8.14-5.63-8.41-8.63-1.07-12.17,18.58-32,27.42-40.47,1.93-1.83,6.48-5,9.07-5.52,4-.86,12.67,4.09,16.14,2,3.64-2.21,6.93-11.78,6-15.92-2.16-9.34-23.69-17.69-27.86-26.32-10.67-22.11,9.83-81.4-8.39-97.85-8.71-7.86-37.08-5.65-46.89.77-5.45,3.57-4.9,21-10.81,23.72-6.61,3.08-20.88-6.81-28.11-7.79-5.81-.79-19.95,4.71-23.44,0-4.06-5.49,4-20.54,8-26.1,5.79-8.12,22.88-20.12,32.29-23.44,14.93-5.26,47.63-5.79,63.24-3.17,16.28,2.73,48.21,14.51,61.25,24.62,9.86,7.65,27.78,27.86,29.54,40.21,1.82,12.68-5.41,44-17.54,48.17-6.17,2.11-15.68-15.3-22.05-13.93-4.75,1-9.81,11.44-10.73,16.22-2.17,11.13,5.55,33.66,9.06,44.44C736.26,236.92,754.82,262.17,756.48,277Z" transform="translate(-375.57 -13.44)"/>
    <path class="cls-2" d="M672,240.2c1-2.84,1.91-9.68,0-12s-8.57-2.2-11.5-2.18c-5,0-14.77,2.39-19.49,4-6.06,2-18.8,6.24-23.1,11-3.72,4.09-9,15.46-7.55,20.79,1.71,6.18,13.84,14,19.87,16.17,3.08,1.11,10.15,1.52,13.09.07C654,272.75,668.21,251.44,672,240.2Z" transform="translate(-375.57 -13.44)"/>
    <path class="cls-3" d="M630.16,123.5c0,10.62,6.23,31.61,5.19,42.18-.86,8.74-5,26.91-11,33.35-3.31,3.56-15.06,3.57-18,7.45-3.94,5.23-3,19.47-3,26" transform="translate(-375.57 -13.44)"/>
    <path d="M715.71,335.29c0-4.58-10.18-9.36-14.14-11.66-9.64-5.59-30.84-13.19-41.68-15.79-15.34-3.68-47-8-62.74-6.84-5.95.43-23.1,0-23.1,6" transform="translate(-375.57 -13.44)" style="fill:none;stroke-miterlimit:10;stroke:#000;stroke-width:3px"/>
    <path class="cls-3" d="M581.78,115.71c0,4.43-15.93,3.36-15.93,7.79" transform="translate(-375.57 -13.44)"/>
    <path class="cls-3" d="M557.11,131.21c0,28.5-7.68,85.32-13.85,113.14-2.42,10.91-13.86,31.35-13.86,42.53" transform="translate(-375.57 -13.44)"/>
</svg>
