<svg id="statues" xmlns="http://www.w3.org/2000/svg" viewBox="0 0 225.93 420.47">
    <defs>
        <style>
            .cls-2{stroke:#000;stroke-linecap:round;stroke-linejoin:round;stroke-width:3px;fill:none}
        </style>
    </defs>
    <title>
        Moai2
    </title>
    <path d="M612.1,98.93c3.57,7.22-3.84,25.13,0,32.21,1.61,3,9.61,4.43,11.3,7.34,7.25,12.48,3.94,43.21,3.39,57.63-.24,6.27-4.16,18.63-3.39,24.86.84,6.79,9.39,18.62,10.17,25.43,2,17.74-12.88,52.89-10.74,70.62.85,7,11.59,19,10.74,26-.55,4.5-9.32,10.3-10.74,14.6-8.68,26.49,15,88,0,111.51-4.43,7-21.87,12.22-29.94,14-29.51,6.56-92.3,9.76-120.91,0-14.87-5.07-43.4-24-49.72-38.42-9.47-21.54,20.64-74,7.91-93.79-2.27-3.53-13.57-2.1-15.82-5.65-11-17.26,7.11-60.94,7.91-81.36.61-15.53-7.39-47.93-1.13-62.15,2.58-5.86,16.47-11.16,19.21-16.95,3.38-7.16,2.17-23.79,1.13-31.64-.76-5.71-6.87-16.27-6.78-22,.08-5.23,3.49-15.72,6.78-19.78,2.07-2.55,9.57-3.93,11.3-6.73,2.09-3.38-1.08-12.57,1.13-15.87,5.93-8.85,29-14.4,39.55-15.82,24.8-3.33,76.63,1,99.44,11.3C598.4,86.72,609.42,93.51,612.1,98.93Z" transform="translate(-409.34 -70.34)" style="stroke:#000;stroke-linecap:round;stroke-linejoin:round;stroke-width:3px;fill:#fff"/>
    <path d="M626.79,196.11c.55-14.42,3.86-45.15-3.39-57.63-1.69-2.91-8.41-9.07-11.3-7.34-3,1.81,4,12,1.13,14.12-12.27,9.27-42.36-19.67-57.63-21.47-15-1.77-45,4.69-59.89,7.35-10.29,1.83-33.59,1.92-40.68,9.6-7.56,8.19-14,35.61-6.78,44.07,9,10.51,45.11,9.29,55.37,0,4.21-3.81-1.44-18.29,2.26-22.6,5.89-6.87,26.35-11.58,35-9,5.18,1.52,12.7,10.8,14.69,15.82,7.08,17.9-5.13,58.57.4,77,2,6.58,15.07,16.14,15,23-.07,7.34-9.75,21.46-16.53,24.29-7.16,3-22.77-6.19-30.51-5.65-7.13.5-21.26,4.95-27.12,9-4.45,3.1-13.63,11.52-13.56,16.95.07,4.81,8.59,11.8,12.43,14.69,9.9,7.46,33.23,17.12,45.2,20.34,8,2.14,27.41-2.86,32.77,3.39,3.68,4.29,2.93,18.66-1.13,22.6-10.14,9.84-42.51-.81-56.5,1.13-6.65.92-24.48.24-26,6.78-.59,2.54,5.44,6,7.91,6.78,7.8,2.58,25.66-6.38,32.77-2.26,9,5.19,11.6,29.21,18.08,37.29,5.41,6.74,21.79,14.66,27.12,21.47,6.31,8.07,7.34,33.75,16.95,37.29,7.76,2.86,25.51-7,29.94-14,15-23.53-8.68-85,0-111.51,1.42-4.3,10.19-10.1,10.74-14.6.85-7-9.89-19-10.74-26-2.14-17.73,12.79-52.88,10.74-70.62-.78-6.81-3.45-26.72-10.17-25.43-11.65,2.24,5.24,36.82,0,47.46-3.07,6.24-15.18,18.07-22,16.95-9.74-1.59-18.72-23.47-22-32.77-4.1-11.49-13.57-40.4-4.52-48.59,5.48-5,22.08,3.06,29,5.65,5.3,2,14.51,13.79,19.59,11.3C629,218.21,626.55,202.38,626.79,196.11Z" transform="translate(-409.34 -70.34)"/>
    <path class="cls-2" d="M491.19,365.61c0-11.2,32.87-8.23,44.07-8,15.63.32,61-2,61,13.65" transform="translate(-409.34 -70.34)"/>
    <path class="cls-2" d="M500.23,173.51c0,17.23,12.45,50.57,12.43,67.8,0,7.76-.4,24.8-5.65,30.51-4,4.32-18.37,2.16-22.6,6.21-3.32,3.19-5.65,12.92-5.65,17.52" transform="translate(-409.34 -70.34)"/>
    <path class="cls-2" d="M485.54,459.4c0-9.73-14.78-25.55-17-35-2.27-9.91,0-30.51,0-40.68" transform="translate(-409.34 -70.34)"/>
    <path class="cls-2" d="M432.43,339.62c0-11.15,5.93-33,6.78-44.07,1.81-23.66,0-71.19,0-94.92" transform="translate(-409.34 -70.34)"/>
</svg>
