<svg id="Layer_1" data-name="Layer 1" xmlns="http://www.w3.org/2000/svg" viewBox="0 0 336.89 319.43"><defs><style>.cls-1{fill:#6a7d83;}.cls-2{fill:#9f9544;}.cls-3{fill:#6c7b81;}.cls-4{fill:#baa43e;}.cls-5{fill:#f3e89e;}.cls-13,.cls-6,.cls-7{fill:none;}.cls-6,.cls-7,.cls-8{stroke:#231f20;stroke-linecap:round;stroke-width:11px;}.cls-6{stroke-linejoin:bevel;}.cls-13,.cls-7,.cls-8{stroke-miterlimit:10;}.cls-8{fill:#231f20;}.cls-9{fill:#112232;}.cls-10{fill:#867346;}.cls-11{fill:#0f143b;}.cls-12{fill:#7e7c9c;}.cls-13{stroke:#6a7d83;}</style></defs><title>monster</title><path class="cls-1" d="M360.06,134.57s7.06-20.66,23.6-29.16c5.83-3,18.8-6.77,25.35-6.6,7.46.2,22,3.35,28.44,7.11,14.61,8.54,18.24,20,20.16,28,2.26,9.46-1.66,29.27-6.28,37.82-3.45,6.37-7,10.26-16.35,17.13-11.23,7.51-27,12.4-27,12.4Z" transform="translate(-121.38 -86.97)"/><path class="cls-2" d="M374.38,148.4s2.3-10.16,8.86-18c3.6-4.32,13.47-10.58,18.83-12.26,5-1.58,15.9-1.88,21-.66,4.43,1.06,12.93,5.37,16,8.76s5.44,12.67,5.66,17.35c.18,4-1.82,11.51-3.25,15.27s-5.1,11.39-7.51,14.54-8.18,8.9-11.65,11c-2.49,1.49-7.77,3.07-10.62,3.6-3.28.62-8.32-1-11.25-2.63C390.61,179.9,374.38,148.4,374.38,148.4Z" transform="translate(-121.38 -86.97)"/><path class="cls-3" d="M153.8,178.35a67.1,67.1,0,0,1-8.36-40.58c.89-8.28,10.17-23.22,15.89-29.28,11.71-12.38,19.49-15.31,27.19-18C195.66,88,211.2,86.65,218.64,88c6,1.09,17.43,6.57,22.17,10.45,4.34,3.55,13.38,18,13.38,18Z" transform="translate(-121.38 -86.97)"/><path class="cls-4" d="M167.4,169.66s-7.34-9-5.78-23.8c.62-5.62,6.14-18.4,12-24A59.12,59.12,0,0,1,193.9,109c7.71-2.94,15.83-2.19,21-1.44,7.24,1,16,6,19.26,8.69,3.75,2.63,6.75,8,6.75,8Z" transform="translate(-121.38 -86.97)"/><path class="cls-1" d="M426,327.85c-8.25-6.18-44.24-13.08-138.75-13.08-46.38,0-133.6,4.79-122.35,39.79-20.35-19.38-43.5-58.34-43.5-96,0-76,77.25-150.43,169.44-150.81,33.86-.13,60.48,15.11,82.28,37,50.36,50.64,39.83,76.31,46.63,119.39C422,278.5,430,316.94,426,327.85Z" transform="translate(-121.38 -86.97)"/><path class="cls-5" d="M425.85,338.36c-3.58,23.21-47.36,67.18-128,68-61.39.64-111.14-31.4-111.63-33.85-6.11-55.86,50.24-50.36,111.63-50.36S417.47,321.85,425.85,338.36Z" transform="translate(-121.38 -86.97)"/><path class="cls-6" d="M217.74,202.35l-1.11,18c-.6,17,184.14,26.29,195.37,14.95.26-.27,2.23-2.14,4.37-4.16" transform="translate(-121.38 -86.97)"/><path class="cls-7" d="M247.3,232.54s-4.37,30.67-4.31,40.86,1.86,22.41,29.19,25.17,37.7-5,41.69-13.93,5.74-44.73,5.74-44.73" transform="translate(-121.38 -86.97)"/><path class="cls-7" d="M363,240.94s-7,38.06-2.24,48.32c4.05,8.69,9.91,10.67,16.25,11.46s16.57-.6,23.18-8.59c3.4-4.12,5.5-15.12,6.42-20.39,1.41-8,1.4-32.39,1.4-32.39" transform="translate(-121.38 -86.97)"/><ellipse class="cls-8" cx="158.61" cy="171.57" rx="12.11" ry="17.12"/><ellipse class="cls-8" cx="385.5" cy="263.07" rx="16.34" ry="6.51" transform="translate(-35.12 534.25) rotate(-84.43)"/><path class="cls-9" d="M165.26,353.7c-3.55-6.15-.7-35.07,54.12-40.54,7.71-.77,20.57-1.44,28.29-2,8.62-.64,24.39-.75,33-1.1,7.73-.31,23.2-.82,30.94-.89,13.24-.12,39.73,0,52.95.59,8.8.43,26.43,1.49,35.11,3,6.66,1.14,25.35,3.59,27.37,7.39a82.72,82.72,0,0,1-1.21,18.24c-2.89,1.67-22.91-7.13-29.6-9.14-6.05-1.81-19.43-2.3-25.72-2.81-20-1.61-60.24-1.85-80.32-1.48-6.78.12-20.34.69-27.07,1.48-6.16.73-18.37,3-24.39,4.47-5.59,1.33-16.61,4.62-22,6.54-3.64,1.3-11.21,3.59-14.28,5.95a55.12,55.12,0,0,0-8.26,8.93c-1.22,1.68-3.27,7.28-3.88,9.27-.95,3.05-1.48,9.5-2.59,12.5C187.72,374.07,169.52,361.1,165.26,353.7Z" transform="translate(-121.38 -86.97)"/><rect class="cls-10" x="328.55" y="340.78" width="13.84" height="20.19" transform="translate(-47.85 -144.8) rotate(11.06)"/><path class="cls-11" d="M367.17,323.36c.13,15.72-9.16,21.27-30.24,21.77-18.35.44-37.73-8.35-37.47-23.68.21-11.67,17.85-15.89,36.21-15.89S367.08,311.69,367.17,323.36Z" transform="translate(-121.38 -86.97)"/><ellipse class="cls-12" cx="346.4" cy="325.53" rx="6.16" ry="7.92" transform="translate(-245.04 309.31) rotate(-51.78)"/><path class="cls-10" d="M288.23,369.88c1-10.24,24.69-11.48,43.55-12.08,23.66-.14,29.33,2.67,31.8,6.82,1.19,2-.5,6.43-2.18,8-1.23,1.17-5,1.36-6.49.51s-2.6-3.46-9.84-4.18c-9.55-.94-25.25-.63-35.88.41-2.73.27-7.72,2.13-10.3,3.08-1.86.69-5.69,1.85-7.59,1.26C289.88,373.28,288,372.39,288.23,369.88Z" transform="translate(-121.38 -86.97)"/><path class="cls-13" d="M153.8,178.35a67.1,67.1,0,0,1-8.36-40.58c.89-8.28,10.17-23.22,15.89-29.28,11.71-12.38,19.49-15.31,27.19-18C195.66,88,211.2,86.65,218.64,88c6,1.09,17.43,6.57,22.17,10.45,4.34,3.55,13.38,18,13.38,18Z" transform="translate(-121.38 -86.97)"/></svg>